<svg xmlns="http://www.w3.org/2000/svg" xmlns:xlink="http://www.w3.org/1999/xlink" width="480" zoomAndPan="magnify" viewBox="0 0 360 149.999998" height="200" preserveAspectRatio="xMidYMid meet" version="1.0"><defs><g/><clipPath id="990187ae52"><path d="M 42.605469 0 L 146.605469 0 L 146.605469 129.414062 L 42.605469 129.414062 Z M 42.605469 0 " clip-rule="nonzero"/></clipPath><clipPath id="e467dadc9e"><path d="M 0.605469 0 L 104.605469 0 L 104.605469 129.414062 L 0.605469 129.414062 Z M 0.605469 0 " clip-rule="nonzero"/></clipPath><clipPath id="9a2e0ce6e0"><rect x="0" width="105" y="0" height="130"/></clipPath><clipPath id="e0a71a968b"><path d="M 84.460938 45.703125 L 126.316406 45.703125 L 126.316406 87.558594 L 84.460938 87.558594 Z M 84.460938 45.703125 " clip-rule="nonzero"/></clipPath><clipPath id="4974c40697"><path d="M 105.386719 45.703125 C 93.828125 45.703125 84.460938 55.074219 84.460938 66.632812 C 84.460938 78.191406 93.828125 87.558594 105.386719 87.558594 C 116.945312 87.558594 126.316406 78.191406 126.316406 66.632812 C 126.316406 55.074219 116.945312 45.703125 105.386719 45.703125 Z M 105.386719 45.703125 " clip-rule="nonzero"/></clipPath><clipPath id="4b44f4b483"><path d="M 0.460938 0.703125 L 42.316406 0.703125 L 42.316406 42.558594 L 0.460938 42.558594 Z M 0.460938 0.703125 " clip-rule="nonzero"/></clipPath><clipPath id="442f40978a"><path d="M 21.386719 0.703125 C 9.828125 0.703125 0.460938 10.074219 0.460938 21.632812 C 0.460938 33.191406 9.828125 42.558594 21.386719 42.558594 C 32.945312 42.558594 42.316406 33.191406 42.316406 21.632812 C 42.316406 10.074219 32.945312 0.703125 21.386719 0.703125 Z M 21.386719 0.703125 " clip-rule="nonzero"/></clipPath><clipPath id="5de73a0d3a"><rect x="0" width="43" y="0" height="43"/></clipPath><clipPath id="993b07e995"><path d="M 84.460938 87.558594 L 126.316406 87.558594 L 126.316406 129.414062 L 84.460938 129.414062 Z M 84.460938 87.558594 " clip-rule="nonzero"/></clipPath><clipPath id="7d12cfd985"><path d="M 105.386719 87.558594 C 93.828125 87.558594 84.460938 96.929688 84.460938 108.488281 C 84.460938 120.042969 93.828125 129.414062 105.386719 129.414062 C 116.945312 129.414062 126.316406 120.042969 126.316406 108.488281 C 126.316406 96.929688 116.945312 87.558594 105.386719 87.558594 Z M 105.386719 87.558594 " clip-rule="nonzero"/></clipPath><clipPath id="95abb9ba7d"><path d="M 0.460938 0.558594 L 42.316406 0.558594 L 42.316406 42.414062 L 0.460938 42.414062 Z M 0.460938 0.558594 " clip-rule="nonzero"/></clipPath><clipPath id="ab6b981512"><path d="M 21.386719 0.558594 C 9.828125 0.558594 0.460938 9.929688 0.460938 21.488281 C 0.460938 33.042969 9.828125 42.414062 21.386719 42.414062 C 32.945312 42.414062 42.316406 33.042969 42.316406 21.488281 C 42.316406 9.929688 32.945312 0.558594 21.386719 0.558594 Z M 21.386719 0.558594 " clip-rule="nonzero"/></clipPath><clipPath id="a29d53791a"><rect x="0" width="43" y="0" height="43"/></clipPath><clipPath id="54ebbc4a06"><path d="M 84.460938 3.851562 L 126.316406 3.851562 L 126.316406 45.703125 L 84.460938 45.703125 Z M 84.460938 3.851562 " clip-rule="nonzero"/></clipPath><clipPath id="c3577e6bb6"><path d="M 105.386719 3.851562 C 93.828125 3.851562 84.460938 13.21875 84.460938 24.777344 C 84.460938 36.335938 93.828125 45.703125 105.386719 45.703125 C 116.945312 45.703125 126.316406 36.335938 126.316406 24.777344 C 126.316406 13.21875 116.945312 3.851562 105.386719 3.851562 Z M 105.386719 3.851562 " clip-rule="nonzero"/></clipPath><clipPath id="bf90acb40a"><path d="M 0.460938 0.851562 L 42.316406 0.851562 L 42.316406 42.703125 L 0.460938 42.703125 Z M 0.460938 0.851562 " clip-rule="nonzero"/></clipPath><clipPath id="70dafec69a"><path d="M 21.386719 0.851562 C 9.828125 0.851562 0.460938 10.21875 0.460938 21.777344 C 0.460938 33.335938 9.828125 42.703125 21.386719 42.703125 C 32.945312 42.703125 42.316406 33.335938 42.316406 21.777344 C 42.316406 10.21875 32.945312 0.851562 21.386719 0.851562 Z M 21.386719 0.851562 " clip-rule="nonzero"/></clipPath><clipPath id="3dab20344b"><rect x="0" width="43" y="0" height="43"/></clipPath><clipPath id="d6f3a05437"><path d="M 42.605469 3.851562 L 84.460938 3.851562 L 84.460938 45.703125 L 42.605469 45.703125 Z M 42.605469 3.851562 " clip-rule="nonzero"/></clipPath><clipPath id="ccb6f4dc96"><path d="M 63.53125 3.851562 C 51.972656 3.851562 42.605469 13.21875 42.605469 24.777344 C 42.605469 36.335938 51.972656 45.703125 63.53125 45.703125 C 75.089844 45.703125 84.460938 36.335938 84.460938 24.777344 C 84.460938 13.21875 75.089844 3.851562 63.53125 3.851562 Z M 63.53125 3.851562 " clip-rule="nonzero"/></clipPath><clipPath id="619f8e826a"><path d="M 0.605469 0.851562 L 42.460938 0.851562 L 42.460938 42.703125 L 0.605469 42.703125 Z M 0.605469 0.851562 " clip-rule="nonzero"/></clipPath><clipPath id="23179e7aff"><path d="M 21.53125 0.851562 C 9.972656 0.851562 0.605469 10.21875 0.605469 21.777344 C 0.605469 33.335938 9.972656 42.703125 21.53125 42.703125 C 33.089844 42.703125 42.460938 33.335938 42.460938 21.777344 C 42.460938 10.21875 33.089844 0.851562 21.53125 0.851562 Z M 21.53125 0.851562 " clip-rule="nonzero"/></clipPath><clipPath id="d3234c563a"><rect x="0" width="43" y="0" height="43"/></clipPath><clipPath id="9f08b3d4be"><path d="M 0.75 3.851562 L 42.605469 3.851562 L 42.605469 45.703125 L 0.75 45.703125 Z M 0.75 3.851562 " clip-rule="nonzero"/></clipPath><clipPath id="db42b433fa"><path d="M 21.675781 3.851562 C 10.121094 3.851562 0.75 13.21875 0.75 24.777344 C 0.75 36.335938 10.121094 45.703125 21.675781 45.703125 C 33.234375 45.703125 42.605469 36.335938 42.605469 24.777344 C 42.605469 13.21875 33.234375 3.851562 21.675781 3.851562 Z M 21.675781 3.851562 " clip-rule="nonzero"/></clipPath><clipPath id="8587b31f77"><path d="M 0.75 0.851562 L 42.605469 0.851562 L 42.605469 42.703125 L 0.75 42.703125 Z M 0.75 0.851562 " clip-rule="nonzero"/></clipPath><clipPath id="2d3eb36dd0"><path d="M 21.675781 0.851562 C 10.121094 0.851562 0.75 10.21875 0.75 21.777344 C 0.75 33.335938 10.121094 42.703125 21.675781 42.703125 C 33.234375 42.703125 42.605469 33.335938 42.605469 21.777344 C 42.605469 10.21875 33.234375 0.851562 21.675781 0.851562 Z M 21.675781 0.851562 " clip-rule="nonzero"/></clipPath><clipPath id="2ab9c3da24"><rect x="0" width="43" y="0" height="43"/></clipPath><clipPath id="cbee514bd9"><path d="M 126.316406 45.703125 L 168.167969 45.703125 L 168.167969 87.558594 L 126.316406 87.558594 Z M 126.316406 45.703125 " clip-rule="nonzero"/></clipPath><clipPath id="45a1a17021"><path d="M 147.242188 45.703125 C 135.683594 45.703125 126.316406 55.074219 126.316406 66.632812 C 126.316406 78.191406 135.683594 87.558594 147.242188 87.558594 C 158.800781 87.558594 168.167969 78.191406 168.167969 66.632812 C 168.167969 55.074219 158.800781 45.703125 147.242188 45.703125 Z M 147.242188 45.703125 " clip-rule="nonzero"/></clipPath><clipPath id="79333e90f8"><path d="M 0.316406 0.703125 L 42.167969 0.703125 L 42.167969 42.558594 L 0.316406 42.558594 Z M 0.316406 0.703125 " clip-rule="nonzero"/></clipPath><clipPath id="c5c2ce86d0"><path d="M 21.242188 0.703125 C 9.683594 0.703125 0.316406 10.074219 0.316406 21.632812 C 0.316406 33.191406 9.683594 42.558594 21.242188 42.558594 C 32.800781 42.558594 42.167969 33.191406 42.167969 21.632812 C 42.167969 10.074219 32.800781 0.703125 21.242188 0.703125 Z M 21.242188 0.703125 " clip-rule="nonzero"/></clipPath><clipPath id="a133fe8e1e"><rect x="0" width="43" y="0" height="43"/></clipPath><clipPath id="de94ef508c"><path d="M 21 0.558594 L 31 0.558594 L 31 16 L 21 16 Z M 21 0.558594 " clip-rule="nonzero"/></clipPath><clipPath id="99c310dc3e"><rect x="0" width="106" y="0" height="19"/></clipPath></defs><g clip-path="url(#990187ae52)"><g transform="matrix(1, 0, 0, 1, 42, -0.000000000000007527)"><g clip-path="url(#9a2e0ce6e0)"><g clip-path="url(#e467dadc9e)"><path fill="#210e50" d="M 0.605469 0 L 104.605469 0 L 104.605469 129.597656 L 0.605469 129.597656 Z M 0.605469 0 " fill-opacity="1" fill-rule="nonzero"/></g></g></g></g><g clip-path="url(#e0a71a968b)"><g clip-path="url(#4974c40697)"><g transform="matrix(1, 0, 0, 1, 84, 45)"><g clip-path="url(#5de73a0d3a)"><g clip-path="url(#4b44f4b483)"><g clip-path="url(#442f40978a)"><path fill="#f4920c" d="M 0.460938 0.703125 L 42.316406 0.703125 L 42.316406 42.558594 L 0.460938 42.558594 Z M 0.460938 0.703125 " fill-opacity="1" fill-rule="nonzero"/></g></g></g></g></g></g><g clip-path="url(#993b07e995)"><g clip-path="url(#7d12cfd985)"><g transform="matrix(1, 0, 0, 1, 84, 87)"><g clip-path="url(#a29d53791a)"><g clip-path="url(#95abb9ba7d)"><g clip-path="url(#ab6b981512)"><path fill="#029441" d="M 0.460938 0.558594 L 42.316406 0.558594 L 42.316406 42.414062 L 0.460938 42.414062 Z M 0.460938 0.558594 " fill-opacity="1" fill-rule="nonzero"/></g></g></g></g></g></g><g clip-path="url(#54ebbc4a06)"><g clip-path="url(#c3577e6bb6)"><g transform="matrix(1, 0, 0, 1, 84, 3)"><g clip-path="url(#3dab20344b)"><g clip-path="url(#bf90acb40a)"><g clip-path="url(#70dafec69a)"><path fill="#e5020c" d="M 0.460938 0.851562 L 42.316406 0.851562 L 42.316406 42.703125 L 0.460938 42.703125 Z M 0.460938 0.851562 " fill-opacity="1" fill-rule="nonzero"/></g></g></g></g></g></g><g clip-path="url(#d6f3a05437)"><g clip-path="url(#ccb6f4dc96)"><g transform="matrix(1, 0, 0, 1, 42, 3)"><g clip-path="url(#d3234c563a)"><g clip-path="url(#619f8e826a)"><g clip-path="url(#23179e7aff)"><path fill="#ffffff" d="M 0.605469 0.851562 L 42.460938 0.851562 L 42.460938 42.703125 L 0.605469 42.703125 Z M 0.605469 0.851562 " fill-opacity="1" fill-rule="nonzero"/></g></g></g></g></g></g><g clip-path="url(#9f08b3d4be)"><g clip-path="url(#db42b433fa)"><g transform="matrix(1, 0, 0, 1, 0, 3)"><g clip-path="url(#2ab9c3da24)"><g clip-path="url(#8587b31f77)"><g clip-path="url(#2d3eb36dd0)"><path fill="#191917" d="M 0.75 0.851562 L 42.605469 0.851562 L 42.605469 42.703125 L 0.75 42.703125 Z M 0.75 0.851562 " fill-opacity="1" fill-rule="nonzero"/></g></g></g></g></g></g><g clip-path="url(#cbee514bd9)"><g clip-path="url(#45a1a17021)"><g transform="matrix(1, 0, 0, 1, 126, 45)"><g clip-path="url(#a133fe8e1e)"><g clip-path="url(#79333e90f8)"><g clip-path="url(#c5c2ce86d0)"><path fill="#ffffff" d="M 0.316406 0.703125 L 42.167969 0.703125 L 42.167969 42.558594 L 0.316406 42.558594 Z M 0.316406 0.703125 " fill-opacity="1" fill-rule="nonzero"/></g></g></g></g></g></g><g transform="matrix(1, 0, 0, 1, 41, 130)"><g clip-path="url(#99c310dc3e)"><g fill="#000000" fill-opacity="1"><g transform="translate(0.966796, 14.829906)"><g><path d="M 9.09375 -7.703125 L 7.71875 -7.703125 C 7.6875 -8.398438 7.429688 -8.941406 6.953125 -9.328125 C 6.472656 -9.710938 5.828125 -9.90625 5.015625 -9.90625 C 4.222656 -9.90625 3.609375 -9.738281 3.171875 -9.40625 C 2.742188 -9.082031 2.53125 -8.613281 2.53125 -8 C 2.53125 -7.269531 2.957031 -6.8125 3.8125 -6.625 L 6.859375 -5.921875 C 8.546875 -5.535156 9.390625 -4.550781 9.390625 -2.96875 C 9.390625 -1.894531 8.988281 -1.082031 8.1875 -0.53125 C 7.394531 0.0078125 6.375 0.28125 5.125 0.28125 C 3.707031 0.28125 2.625 -0.0351562 1.875 -0.671875 C 1.125 -1.316406 0.75 -2.265625 0.75 -3.515625 L 2.125 -3.515625 L 2.125 -3.484375 C 2.125 -2.691406 2.394531 -2.070312 2.9375 -1.625 C 3.476562 -1.1875 4.207031 -0.96875 5.125 -0.96875 C 5.925781 -0.96875 6.597656 -1.109375 7.140625 -1.390625 C 7.691406 -1.679688 7.96875 -2.15625 7.96875 -2.8125 C 7.96875 -3.238281 7.875 -3.570312 7.6875 -3.8125 C 7.5 -4.050781 7.222656 -4.238281 6.859375 -4.375 C 6.492188 -4.507812 5.941406 -4.660156 5.203125 -4.828125 L 3.359375 -5.265625 C 2.597656 -5.429688 2.03125 -5.738281 1.65625 -6.1875 C 1.289062 -6.632812 1.109375 -7.175781 1.109375 -7.8125 C 1.109375 -8.476562 1.253906 -9.0625 1.546875 -9.5625 C 1.847656 -10.070312 2.28125 -10.46875 2.84375 -10.75 C 3.40625 -11.03125 4.070312 -11.171875 4.84375 -11.171875 C 7.582031 -11.171875 9 -10.015625 9.09375 -7.703125 Z M 9.09375 -7.703125 "/></g></g></g><g fill="#000000" fill-opacity="1"><g transform="translate(11.069681, 14.829906)"><g><path d="M 9.421875 -7.828125 C 9.421875 -7.203125 9.289062 -6.644531 9.03125 -6.15625 C 8.78125 -5.664062 8.414062 -5.28125 7.9375 -5 C 7.457031 -4.726562 6.898438 -4.59375 6.265625 -4.59375 L 2.78125 -4.59375 L 2.78125 0 L 1.296875 0 L 1.296875 -10.875 L 6.265625 -10.875 C 6.859375 -10.875 7.394531 -10.742188 7.875 -10.484375 C 8.363281 -10.234375 8.742188 -9.875 9.015625 -9.40625 C 9.285156 -8.945312 9.421875 -8.421875 9.421875 -7.828125 Z M 7.90625 -7.8125 C 7.90625 -8.40625 7.722656 -8.851562 7.359375 -9.15625 C 7.003906 -9.46875 6.488281 -9.625 5.8125 -9.625 L 2.78125 -9.625 L 2.78125 -5.84375 L 5.765625 -5.84375 C 7.191406 -5.84375 7.90625 -6.5 7.90625 -7.8125 Z M 7.90625 -7.8125 "/></g></g></g><g clip-path="url(#de94ef508c)"><g fill="#000000" fill-opacity="1"><g transform="translate(21.172565, 14.829906)"><g><path d="M 9.09375 -7.703125 L 7.71875 -7.703125 C 7.6875 -8.398438 7.429688 -8.941406 6.953125 -9.328125 C 6.472656 -9.710938 5.828125 -9.90625 5.015625 -9.90625 C 4.222656 -9.90625 3.609375 -9.738281 3.171875 -9.40625 C 2.742188 -9.082031 2.53125 -8.613281 2.53125 -8 C 2.53125 -7.269531 2.957031 -6.8125 3.8125 -6.625 L 6.859375 -5.921875 C 8.546875 -5.535156 9.390625 -4.550781 9.390625 -2.96875 C 9.390625 -1.894531 8.988281 -1.082031 8.1875 -0.53125 C 7.394531 0.0078125 6.375 0.28125 5.125 0.28125 C 3.707031 0.28125 2.625 -0.0351562 1.875 -0.671875 C 1.125 -1.316406 0.75 -2.265625 0.75 -3.515625 L 2.125 -3.515625 L 2.125 -3.484375 C 2.125 -2.691406 2.394531 -2.070312 2.9375 -1.625 C 3.476562 -1.1875 4.207031 -0.96875 5.125 -0.96875 C 5.925781 -0.96875 6.597656 -1.109375 7.140625 -1.390625 C 7.691406 -1.679688 7.96875 -2.15625 7.96875 -2.8125 C 7.96875 -3.238281 7.875 -3.570312 7.6875 -3.8125 C 7.5 -4.050781 7.222656 -4.238281 6.859375 -4.375 C 6.492188 -4.507812 5.941406 -4.660156 5.203125 -4.828125 L 3.359375 -5.265625 C 2.597656 -5.429688 2.03125 -5.738281 1.65625 -6.1875 C 1.289062 -6.632812 1.109375 -7.175781 1.109375 -7.8125 C 1.109375 -8.476562 1.253906 -9.0625 1.546875 -9.5625 C 1.847656 -10.070312 2.28125 -10.46875 2.84375 -10.75 C 3.40625 -11.03125 4.070312 -11.171875 4.84375 -11.171875 C 7.582031 -11.171875 9 -10.015625 9.09375 -7.703125 Z M 6.046875 -14.078125 L 7.265625 -14.078125 L 5.765625 -11.9375 L 4.34375 -11.9375 L 2.84375 -14.078125 L 4.046875 -14.078125 L 5.046875 -12.671875 Z M 6.046875 -14.078125 "/></g></g></g></g><g fill="#000000" fill-opacity="1"><g transform="translate(31.27545, 14.829906)"><g><path d="M 10.21875 -5.625 C 10.21875 -4.550781 10.039062 -3.585938 9.6875 -2.734375 C 9.332031 -1.878906 8.8125 -1.207031 8.125 -0.71875 C 7.445312 -0.238281 6.625 0 5.65625 0 L 1.234375 0 L 1.234375 -10.875 L 5.671875 -10.875 C 6.523438 -10.875 7.296875 -10.671875 7.984375 -10.265625 C 8.671875 -9.859375 9.210938 -9.257812 9.609375 -8.46875 C 10.015625 -7.675781 10.21875 -6.726562 10.21875 -5.625 Z M 5.59375 -1.265625 C 6.195312 -1.265625 6.734375 -1.421875 7.203125 -1.734375 C 7.671875 -2.054688 8.035156 -2.535156 8.296875 -3.171875 C 8.566406 -3.804688 8.703125 -4.582031 8.703125 -5.5 C 8.703125 -6.863281 8.410156 -7.890625 7.828125 -8.578125 C 7.242188 -9.273438 6.453125 -9.625 5.453125 -9.625 L 2.703125 -9.625 L 2.703125 -1.265625 Z M 5.59375 -1.265625 "/></g></g></g><g fill="#000000" fill-opacity="1"><g transform="translate(42.211406, 14.829906)"><g/></g></g><g fill="#000000" fill-opacity="1"><g transform="translate(45.664639, 14.829906)"><g><path d="M 5.359375 -9.578125 L 5.359375 0 L 3.890625 0 L 3.890625 -9.578125 L 0.21875 -9.578125 L 0.21875 -10.875 L 9.046875 -10.875 L 9.046875 -9.578125 Z M 5.359375 -9.578125 "/></g></g></g><g fill="#000000" fill-opacity="1"><g transform="translate(54.919305, 14.829906)"><g><path d="M 9.9375 -7.953125 C 9.9375 -7.328125 9.816406 -6.8125 9.578125 -6.40625 C 9.347656 -6.007812 8.960938 -5.65625 8.421875 -5.34375 C 8.765625 -5.21875 9.023438 -5.066406 9.203125 -4.890625 C 9.378906 -4.722656 9.507812 -4.484375 9.59375 -4.171875 C 9.675781 -3.867188 9.734375 -3.398438 9.765625 -2.765625 L 9.84375 -1 C 9.851562 -0.675781 10.023438 -0.425781 10.359375 -0.25 L 10.359375 0 L 8.5625 0 C 8.5 -0.21875 8.441406 -0.570312 8.390625 -1.0625 C 8.335938 -1.5625 8.3125 -2.144531 8.3125 -2.8125 C 8.3125 -3.476562 8.144531 -3.953125 7.8125 -4.234375 C 7.488281 -4.523438 7.019531 -4.671875 6.40625 -4.671875 L 2.796875 -4.671875 L 2.796875 0 L 1.328125 0 L 1.328125 -10.875 L 6.359375 -10.875 C 7.484375 -10.875 8.359375 -10.628906 8.984375 -10.140625 C 9.617188 -9.648438 9.9375 -8.921875 9.9375 -7.953125 Z M 8.421875 -7.8125 C 8.421875 -9.019531 7.796875 -9.625 6.546875 -9.625 L 2.796875 -9.625 L 2.796875 -5.921875 L 6.28125 -5.921875 C 7.707031 -5.921875 8.421875 -6.550781 8.421875 -7.8125 Z M 8.421875 -7.8125 "/></g></g></g><g fill="#000000" fill-opacity="1"><g transform="translate(65.855261, 14.829906)"><g><path d="M 8.359375 -2.09375 L 8.359375 -10.875 L 9.796875 -10.875 L 9.796875 0 L 8.140625 0 L 2.609375 -8.796875 L 2.578125 -8.796875 L 2.578125 0 L 1.15625 0 L 1.15625 -10.875 L 2.890625 -10.875 L 8.34375 -2.09375 Z M 8.359375 -2.09375 "/></g></g></g><g fill="#000000" fill-opacity="1"><g transform="translate(76.791218, 14.829906)"><g><path d="M 8.3125 0 L 7.234375 -3.171875 L 2.859375 -3.171875 L 1.734375 0 L 0.21875 0 L 4.296875 -10.875 L 5.96875 -10.875 L 9.90625 0 Z M 6.703125 -4.46875 L 5.09375 -9.265625 L 5.0625 -9.265625 L 3.3125 -4.46875 Z M 6.703125 -4.46875 "/></g></g></g><g fill="#000000" fill-opacity="1"><g transform="translate(85.833506, 14.829906)"><g><path d="M 5.078125 -1.609375 L 8.15625 -10.875 L 9.8125 -10.875 L 5.828125 0 L 4.28125 0 L 0.296875 -10.875 L 1.9375 -10.875 L 5.046875 -1.609375 Z M 5.078125 -1.609375 "/></g></g></g><g fill="#000000" fill-opacity="1"><g transform="translate(94.724285, 14.829906)"><g><path d="M 8.3125 0 L 7.234375 -3.171875 L 2.859375 -3.171875 L 1.734375 0 L 0.21875 0 L 4.296875 -10.875 L 5.96875 -10.875 L 9.90625 0 Z M 6.703125 -4.46875 L 5.09375 -9.265625 L 5.0625 -9.265625 L 3.3125 -4.46875 Z M 6.703125 -4.46875 "/></g></g></g></g></g></svg>